<svg width="256" height="256" viewBox="0 0 256 256" xmlns="http://www.w3.org/2000/svg">
  <!-- Background -->
  <rect width="256" height="256" fill="#1e3a8a"/>
  
  <!-- Book Symbol -->
  <g transform="translate(128, 128) scale(1.8)">
    <!-- Left page -->
    <path d="M -30 -25 L -30 25 Q -30 30 -25 30 L -3 30 L -3 -30 L -25 -30 Q -30 -30 -30 -25 Z" 
          fill="#fbbf24" stroke="#1e3a8a" stroke-width="1"/>
    
    <!-- Right page -->
    <path d="M 3 -30 L 3 30 L 25 30 Q 30 30 30 25 L 30 -25 Q 30 -30 25 -30 Z" 
          fill="#fbbf24" stroke="#1e3a8a" stroke-width="1"/>
    
    <!-- Spine -->
    <rect x="-3" y="-30" width="6" height="60" fill="#dc2626"/>
    
    <!-- Graduation Cap -->
    <g transform="translate(0, -40)">
      <path d="M -20 -8 L 0 -15 L 20 -8 L 20 -5 L 0 -12 L -20 -5 Z" 
            fill="#fbbf24" stroke="#1e3a8a" stroke-width="1"/>
      <circle cx="0" cy="-15" r="2" fill="#dc2626"/>
      <line x1="0" y1="-15" x2="0" y2="-8" stroke="#dc2626" stroke-width="1.2"/>
    </g>
  </g>
</svg>
