<svg xmlns="http://www.w3.org/2000/svg" viewBox="0 0 100 100">
  <defs>
    <linearGradient id="grad1" x1="0%" y1="0%" x2="100%" y2="100%">
      <stop offset="0%" style="stop-color:#00ff88;stop-opacity:1" />
      <stop offset="100%" style="stop-color:#00cc6a;stop-opacity:1" />
    </linearGradient>
  </defs>
  
  <!-- Background circle -->
  <circle cx="50" cy="50" r="48" fill="#0a0e1a" stroke="url(#grad1)" stroke-width="3"/>
  
  <!-- Mountain peaks (Himalaya symbol) -->
  <path d="M 25 60 L 35 35 L 45 50 L 50 30 L 65 55 L 75 60 Z" fill="url(#grad1)" opacity="0.9"/>
  <path d="M 25 60 L 35 35 L 45 50 L 50 30 L 65 55 L 75 60 Z" fill="none" stroke="#00ff88" stroke-width="1.5" stroke-linejoin="round"/>
  
  <!-- Star (apex symbol) -->
  <circle cx="50" cy="25" r="3" fill="#ffeb3b"/>
  <path d="M 50 22 L 51 24.5 L 53.5 24.5 L 51.5 26 L 52 28.5 L 50 27 L 48 28.5 L 48.5 26 L 46.5 24.5 L 49 24.5 Z" fill="#ffeb3b" opacity="0.8"/>
  
  <!-- School building base -->
  <rect x="42" y="55" width="16" height="15" fill="#1a2332" stroke="#00ff88" stroke-width="1"/>
  <rect x="47" y="60" width="3" height="5" fill="#00ff88" opacity="0.5"/>
  <rect x="50" y="60" width="3" height="5" fill="#00ff88" opacity="0.5"/>
  
  <!-- Initials HAA -->
  <text x="50" y="77" font-family="Arial, sans-serif" font-size="12" font-weight="bold" fill="#00ff88" text-anchor="middle">H</text>
</svg>
